<?xml version="1.0" encoding="utf-8"?>
<!-- Generator: Adobe Illustrator 16.0.0, SVG Export Plug-In . SVG Version: 6.00 Build 0)  -->
<!DOCTYPE svg PUBLIC "-//W3C//DTD SVG 1.1//EN" "http://www.w3.org/Graphics/SVG/1.1/DTD/svg11.dtd">
<svg version="1.1" id="Layer_1" xmlns="http://www.w3.org/2000/svg" xmlns:xlink="http://www.w3.org/1999/xlink" x="0px" y="0px"
	 width="612px" height="792px" viewBox="0 0 612 792" enable-background="new 0 0 612 792" xml:space="preserve">
<g>
	<path d="M258.923,54.692c7.062,0,11.77,2.354,16.478,7.062l329.538,327.185c4.708,4.708,7.062,9.415,7.062,16.478
		c0,7.061-2.354,11.769-7.062,16.477L275.4,730.246c-9.416,9.416-23.539,9.416-32.954,0c-9.415-9.415-9.415-23.538,0-32.953
		l313.062-291.877L242.446,94.708c-9.415-9.416-9.415-23.539,0-32.954C247.154,57.046,251.861,54.692,258.923,54.692z"/>
</g>
<g>
	<path d="M23.538,125.308c7.062,0,11.77,2.354,16.478,7.062l258.923,254.216c4.708,4.707,7.062,11.769,7.062,16.477
		s-2.354,11.77-7.062,16.478L40.016,659.631c-9.416,9.415-23.539,9.415-32.954-2.354c-9.415-9.416-9.415-23.539,2.354-32.954
		l240.093-223.616L7.062,162.969c-9.415-9.415-9.415-23.538,0-32.953C11.77,127.662,16.477,125.308,23.538,125.308z"/>
</g>
</svg>
