<?xml version="1.0" encoding="utf-8"?>
<!-- Generator: Adobe Illustrator 19.0.0, SVG Export Plug-In . SVG Version: 6.00 Build 0)  -->
<svg version="1.1" id="Layer_1" xmlns="http://www.w3.org/2000/svg" xmlns:xlink="http://www.w3.org/1999/xlink" x="0px" y="0px"
	 viewBox="0 0 26 29" style="enable-background:new 0 0 26 29;" xml:space="preserve">
<g>
	<path d="M15,29c-0.3,0-0.5-0.1-0.7-0.3l-14-13.9C0.1,14.6,0,14.4,0,14.1c0-0.3,0.1-0.5,0.3-0.7l14-13.1c0.4-0.4,1-0.4,1.4,0
		c0.4,0.4,0.4,1,0,1.4L2.4,14.1l13.3,13.2c0.4,0.4,0.4,1,0,1.4C15.5,28.9,15.3,29,15,29z"/>
</g>
<g>
	<path d="M25,26c-0.3,0-0.5-0.1-0.7-0.3l-11-10.8c-0.2-0.2-0.3-0.5-0.3-0.7s0.1-0.5,0.3-0.7l11-10.2c0.4-0.4,1-0.4,1.4,0.1
		c0.4,0.4,0.4,1-0.1,1.4l-10.2,9.5l10.3,10.1c0.4,0.4,0.4,1,0,1.4C25.5,25.9,25.3,26,25,26z"/>
</g>
</svg>
