<?xml version="1.0" encoding="utf-8"?>
<!-- Generator: Adobe Illustrator 19.0.0, SVG Export Plug-In . SVG Version: 6.00 Build 0)  -->
<svg version="1.1" id="Layer_1" xmlns="http://www.w3.org/2000/svg" xmlns:xlink="http://www.w3.org/1999/xlink" x="0px" y="0px"
	 viewBox="0 0 23 24" style="enable-background:new 0 0 23 24;" xml:space="preserve">
<style type="text/css">
	.st0{fill-rule:evenodd;clip-rule:evenodd;}
</style>
<g id="XMLID_41_">
	<g id="XMLID_44_">
		<path id="XMLID_45_" class="st0" d="M0.1,1.6c0-0.8,0.2-1.2,0.5-1.4l0.2-0.1c0.5-0.3,1-0.2,1.6,0.3c0.8,0.5,2.3,1.1,4.4,1.9
			c0.6,0.3,0.9,0.4,1,0.5C8.1,3.5,8,4,7.5,4.3l-0.1,0C7.3,4.3,6.2,3.8,4.1,3C2.6,2.3,1.8,2,1.7,1.9l0,0C1.7,2.5,1.6,3.7,1.6,5.5
			c0,0.5-0.1,0.8-0.1,0.9C1.4,6.4,1.3,6.5,1.2,6.6C0.7,6.8,0.4,6.8,0,6.5C0,4.9,0,3.3,0.1,1.6z"/>
	</g>
	<g id="XMLID_42_">
		<path id="XMLID_43_" d="M0.8,1.6C1.9,4.5,3.6,7.3,5.4,10c3.7,5.4,8.8,10.8,15.7,13.6c2.5,1,2.4-0.3,0.2-1.2C11.8,18.5,6,9.4,2.5,2
			C2.3,1.6,0.7,1.5,0.8,1.6z"/>
	</g>
</g>
</svg>
