<?xml version="1.0" encoding="utf-8"?>
<!-- Generator: Adobe Illustrator 16.0.0, SVG Export Plug-In . SVG Version: 6.00 Build 0)  -->
<!DOCTYPE svg PUBLIC "-//W3C//DTD SVG 1.1//EN" "http://www.w3.org/Graphics/SVG/1.1/DTD/svg11.dtd">
<svg version="1.1" id="Layer_1" xmlns="http://www.w3.org/2000/svg" xmlns:xlink="http://www.w3.org/1999/xlink" x="0px" y="0px"
	 width="682.616px" height="682.617px" viewBox="-35.308 54.692 682.616 682.617"
	 enable-background="new -35.308 54.692 682.616 682.617" xml:space="preserve">
<g>
	<path d="M647.309,348.922c0,7.062-2.354,11.77-7.062,16.478L313.063,694.938c-4.709,4.707-9.415,7.062-16.479,7.062
		c-7.061,0-11.769-2.354-16.477-7.062l-308.353-329.54c-9.416-9.416-9.416-23.539,0-32.954c9.415-9.415,23.538-9.415,32.953,0
		l291.877,313.062l310.708-313.062c9.416-9.415,23.539-9.415,32.954,0C644.955,337.153,647.309,341.86,647.309,348.922z"/>
</g>
<g>
	<path d="M576.693,113.537c0,7.062-2.354,11.77-7.063,16.478L315.415,388.938c-4.707,4.708-11.77,7.062-16.477,7.062
		c-4.708,0-11.771-2.354-16.479-7.062L42.37,130.015c-9.415-9.416-9.415-23.539,2.354-32.954c9.416-9.415,23.539-9.415,32.954,2.354
		l223.616,240.093L539.032,97.061c9.415-9.415,23.538-9.415,32.952,0C574.339,101.769,576.693,106.476,576.693,113.537z"/>
</g>
</svg>
