<?xml version="1.0" encoding="utf-8"?>
<!-- Generator: Adobe Illustrator 19.0.0, SVG Export Plug-In . SVG Version: 6.00 Build 0)  -->
<svg version="1.1" id="Layer_1" xmlns="http://www.w3.org/2000/svg" xmlns:xlink="http://www.w3.org/1999/xlink" x="0px" y="0px"
	 viewBox="-130 186.9 23 24" style="enable-background:new -130 186.9 23 24;" xml:space="preserve">
<style type="text/css">
	.st0{fill:#231F20;}
</style>
<g>
	<g>
		<path class="st0" d="M-107.1,188.4c-0.1-0.8-0.2-1.2-0.5-1.4l-0.2-0.1c-0.5-0.3-1-0.2-1.6,0.3c-0.8,0.5-2.3,1.1-4.4,1.9
			c-0.6,0.3-0.9,0.4-1,0.5c-0.3,0.7-0.2,1.2,0.3,1.5l0,0c0.1,0,1.2-0.4,3.3-1.3c1.5-0.7,2.3-1,2.4-1.1l0,0c0.1,0.6,0.1,1.8,0.1,3.5
			c0,0.5,0.1,0.8,0.1,0.9c0.1,0.1,0.2,0.1,0.3,0.2c0.4,0.2,0.8,0.2,1.2,0C-107,191.8-107,190.1-107.1,188.4z"/>
	</g>
	<g>
		<path class="st0" d="M-107.8,188.4c-1.1,2.9-2.8,5.7-4.7,8.4c-3.7,5.4-8.8,10.8-15.7,13.6c-2.5,1-2.4-0.3-0.2-1.2
			c9.6-3.9,15.4-13,18.9-20.4C-109.3,188.4-107.7,188.4-107.8,188.4z"/>
	</g>
</g>
</svg>
