<?xml version="1.0" encoding="utf-8"?>
<!-- Generator: Adobe Illustrator 19.0.0, SVG Export Plug-In . SVG Version: 6.00 Build 0)  -->
<svg version="1.1" id="Layer_1" xmlns="http://www.w3.org/2000/svg" xmlns:xlink="http://www.w3.org/1999/xlink" x="0px" y="0px"
	 viewBox="0 0 39 29" style="enable-background:new 0 0 39 29;" xml:space="preserve">
<g id="XMLID_1_">
	<g>
		<path id="XMLID_3_" d="M11,29c-0.3,0-0.5-0.1-0.7-0.3c-0.4-0.4-0.4-1,0-1.4l27-27c0.4-0.4,1-0.4,1.4,0s0.4,1,0,1.4l-27,27
			C11.5,28.9,11.3,29,11,29z"/>
	</g>
	<g>
		<path id="XMLID_2_" d="M1,29c-0.3,0-0.5-0.1-0.7-0.3c-0.4-0.4-0.4-1,0-1.4l27-27c0.4-0.4,1-0.4,1.4,0s0.4,1,0,1.4l-27,27
			C1.5,28.9,1.3,29,1,29z"/>
	</g>
</g>
</svg>
