<?xml version="1.0" encoding="utf-8"?>
<!-- Generator: Adobe Illustrator 19.0.0, SVG Export Plug-In . SVG Version: 6.00 Build 0)  -->
<svg version="1.1" id="Layer_1" xmlns="http://www.w3.org/2000/svg" xmlns:xlink="http://www.w3.org/1999/xlink" x="0px" y="0px"
	 viewBox="0 0 85 30" style="enable-background:new 0 0 85 30;" xml:space="preserve">
<style type="text/css">
	.st0{fill-rule:evenodd;clip-rule:evenodd;}
</style>
<g>
	<path class="st0" d="M3.8,21h2.6c3.3,0,4.8-2.3,4.8-5.3c0-3.3-1.5-5.5-5-5.5H3.8V21z M0,8.5c0-1.2,0.8-2,2-2h4.2c5.7,0,9,3.7,9,9.3
		c0,5.4-3.5,8.8-8.7,8.8H2c-0.8,0-2-0.5-2-1.9V8.5z"/>
	<path class="st0" d="M19.6,17.8c0,1.8,0.9,3.4,2.9,3.4s2.9-1.6,2.9-3.4s-0.9-3.5-2.9-3.5C20.5,14.2,19.6,16,19.6,17.8z M29,17.8
		c0,3.8-2.6,7-6.5,7c-3.9,0-6.5-3.2-6.5-7c0-3.7,2.7-7.1,6.5-7.1S29,14.1,29,17.8z"/>
	<path class="st0" d="M36.7,21.2c1.9,0,2.8-1.7,2.8-3.4c0-1.7-0.9-3.5-2.8-3.5c-2,0-2.9,1.6-2.9,3.4S34.7,21.2,36.7,21.2z
		 M30.2,12.9c0-1.2,0.8-2,1.8-2c1,0,1.6,0.6,1.8,1.5c0.7-1.1,2.1-1.7,3.5-1.7c3.9,0,5.9,3.7,5.9,7.2c0,3.4-2.3,6.9-6,6.9
		c-1.1,0-2.4-0.4-3.3-1.3V28c0,1.2-0.8,2-1.8,2c-1.1,0-1.8-0.8-1.8-2V12.9z"/>
	<path class="st0" d="M50.9,21.2c1.9,0,2.8-1.7,2.8-3.4c0-1.7-0.9-3.5-2.8-3.5c-2,0-2.9,1.6-2.9,3.4S48.9,21.2,50.9,21.2z
		 M44.4,12.9c0-1.2,0.8-2,1.8-2c1,0,1.6,0.6,1.8,1.5c0.7-1.1,2.1-1.7,3.5-1.7c3.9,0,5.9,3.7,5.9,7.2c0,3.4-2.3,6.9-6,6.9
		c-1.1,0-2.4-0.4-3.3-1.3V28c0,1.2-0.8,2-1.8,2c-1.1,0-1.8-0.8-1.8-2V12.9z"/>
	<path d="M58.5,8.4c0-1.2,0.8-2,1.8-2c1.1,0,1.8,0.8,1.8,2v14.2c0,1.2-0.8,2-1.8,2c-1.1,0-1.8-0.8-1.8-2V8.4z"/>
	<path class="st0" d="M72.5,16.5c-0.2-1.6-1.2-2.8-2.9-2.8c-1.6,0-2.7,1.2-2.9,2.8H72.5z M66.7,19c0.3,1.8,1.8,2.6,3.4,2.6
		c1.9,0,2.8-1.5,3.8-1.5c0.8,0,1.5,0.8,1.5,1.6c0,1.6-2.9,3.1-5.6,3.1c-4.1,0-6.8-3-6.8-7c0-3.7,2.7-7.1,6.5-7.1
		c3.9,0,6.5,3.6,6.5,6.6c0,1.1-0.5,1.6-1.6,1.6H66.7z"/>
	<path d="M77,12.7c0-1.2,1-1.8,1.9-1.8c0.7,0,1.3,0.3,1.8,1.5h0.1c0.7-1,1.4-1.5,2.6-1.5c0.9,0,1.8,0.6,1.8,1.9
		c0,1.2-1.1,1.3-2.2,1.8c-1.1,0.5-2.2,1-2.2,2.4v5.6c0,1.2-0.8,2-1.8,2c-1.1,0-1.8-0.8-1.8-2V12.7z"/>
	<path d="M42.9,4.5c0,0-1.5-4.5-6.2-4.5h0l0,0c-4.6,0-6.2,4.5-6.2,4.5c-0.1,0.3-0.3,0.8,0.2,1.6c0.7,1.2,2.8,1.1,3.3-0.3
		c0,0,0.6-2,2.7-2.1c2.2,0,2.7,2.1,2.7,2.1c0.5,1.4,2.5,1.5,3.3,0.3C43.2,5.3,43,4.8,42.9,4.5z"/>
</g>
</svg>
