<?xml version="1.0" encoding="utf-8"?>
<!-- Generator: Adobe Illustrator 19.0.0, SVG Export Plug-In . SVG Version: 6.00 Build 0)  -->
<svg version="1.1" id="Layer_1" xmlns="http://www.w3.org/2000/svg" xmlns:xlink="http://www.w3.org/1999/xlink" x="0px" y="0px"
	 viewBox="0 0 22.3 20.9" style="enable-background:new 0 0 22.3 20.9;" xml:space="preserve">
<style type="text/css">
	.st0{fill-rule:evenodd;clip-rule:evenodd;}
</style>
<g>
	<path class="st0" d="M17.9,14.6C13.7,22.1,2,19.1,2,10.4C2,0.9,15.2-1,18.4,7.2h-3.1c-1.3,0-1.3,2,0,2h3.9c0.4,0.3,1,0.3,1.3,0h0.8
		c0.5,0,1-0.5,1-1v-5c0-1.3-2-1.3-2,0v3.3C16.3-3.7,0-1.4,0,10.4c0,10.7,14.4,14.5,19.7,5.2C20.3,14.4,18.6,13.4,17.9,14.6z"/>
</g>
</svg>
