<?xml version="1.0" encoding="utf-8"?>
<!-- Generator: Adobe Illustrator 19.0.0, SVG Export Plug-In . SVG Version: 6.00 Build 0)  -->
<svg version="1.1" id="Layer_1" xmlns="http://www.w3.org/2000/svg" xmlns:xlink="http://www.w3.org/1999/xlink" x="0px" y="0px"
	 viewBox="0 0 17 20" style="enable-background:new 0 0 17 20;" xml:space="preserve">
<style type="text/css">
	.st0{fill-rule:evenodd;clip-rule:evenodd;}
</style>
<path class="st0" d="M11.8,17.5c0,1.4,1.2,2.5,2.6,2.5c1.4,0,2.6-1.1,2.6-2.5c0-1.4-1.2-2.5-2.6-2.5c-0.9,0-1.6,0.4-2.1,1L5,11.2
	c0.2-0.3,0.2-0.7,0.2-1c0-0.3-0.1-0.6-0.2-0.9l7.6-5C13.1,4.7,13.7,5,14.4,5C15.8,5,17,3.9,17,2.5C17,1.1,15.8,0,14.4,0
	c-1.4,0-2.6,1.1-2.6,2.5c0,0.4,0.1,0.7,0.2,1l-7.5,5C4,8,3.3,7.7,2.6,7.7C1.2,7.7,0,8.9,0,10.2s1.2,2.5,2.6,2.5
	c0.7,0,1.3-0.2,1.7-0.6l7.5,4.9C11.8,17.2,11.8,17.3,11.8,17.5z"/>
</svg>
